# xmcd
#
# Track frame offsets: 
#        150
#        19385
#        33189
#        48788
#        67141
#        80427
#        98299
#        117056
#        142156
#        161210
#        177530
#
# Disc length: 2568 seconds
#
# Revision: 0
# Processed by: cddbd v1.5.2PL0 Copyright (c) Steve Scherf et al.
# Submitted via: ExactAudioCopy v0.99pb4
#
DISCID=900a060b
DTITLE=Clint Martin - Proven
DYEAR=2009
DGENRE=Country
TTITLE0=Another Time Another Place
TTITLE1=Rest Of His Life
TTITLE2=We'll See
TTITLE3=The Lady She Is
TTITLE4=Satisfied
TTITLE5=Blue
TTITLE6=West Side Of The Tracks
TTITLE7=32 Men
TTITLE8=Dallas
TTITLE9=Love Run Wild
TTITLE10=Old Time Old #7 Whiskey
EXTD=
EXTT0=
EXTT1=
EXTT2=
EXTT3=
EXTT4=
EXTT5=
EXTT6=
EXTT7=
EXTT8=
EXTT9=
EXTT10=
PLAYORDER=
